<svg xmlns="http://www.w3.org/2000/svg" viewBox="0 0 32 32" width="100%" height="100%">
  <defs>
    <linearGradient id="favicon-teal" x1="0" y1="0" x2="1" y2="1">
      <stop offset="0%" stop-color="#0d9488" />
      <stop offset="100%" stop-color="#14b8a6" />
    </linearGradient>
  </defs>
  <!-- Stylized premium tooth path -->
  <path fill="url(#favicon-teal)" d="M16,2C11.5,2,8,5.5,8,10c0,2.8,1.2,5.2,3.1,6.8c-0.8,2.6-2.2,6.4-3.1,8.9c-0.6,1.8,0.8,3.3,2.5,3.3c1.8,0,3.2-1.2,4-2.8c0.6,1.2,1.8,2.1,3.2,2.1c1.4,0,2.6-0.9,3.2-2.1c0.8,1.6,2.2,2.8,4,2.8c1.7,0,3.1-1.5,2.5-3.3c-0.9-2.5-2.3-6.3-3.1-8.9c1.9-1.6,3.1-4,3.1-6.8C24,5.5,20.5,2,16,2z"/>
  <!-- Smiling arc below the mark -->
  <path stroke="url(#favicon-teal)" stroke-width="2.5" stroke-linecap="round" fill="none" d="M5,22c6,5,16,5,22,0"/>
</svg>
